<?xml version="1.0" encoding="UTF-8"?>
<svg version="1.1" xmlns="http://www.w3.org/2000/svg" width="512" height="512">
<path d="M0 0 C8.63680123 6.437213 16.03972705 14.12123331 18 25 C19.08001838 36.95141219 18.2560966 46.76142982 10.98046875 56.78125 C7.43890015 60.99887985 4.17211561 64.00618925 -0.66699219 66.64086914 C-1.47819519 67.08459366 -2.28939819 67.52831818 -3.12518311 67.98548889 C-3.74387268 68.32027756 -4.36256226 68.65506622 -5 69 C-4.3325325 69.00586624 -3.665065 69.01173248 -2.97737122 69.01777649 C4.08182875 69.08259545 11.14060925 69.16721992 18.19946289 69.26245117 C20.82049974 69.2953445 23.44160139 69.32348218 26.06274414 69.34643555 C62.59383441 69.6747892 97.23821125 74.35869446 126 99 C126.51965332 99.43892578 127.03930664 99.87785156 127.57470703 100.33007812 C144.04194356 114.36260323 158.34177851 133.18429702 165 154 C165 154.99 165 155.98 165 157 C165.93199219 157.02578125 166.86398437 157.0515625 167.82421875 157.078125 C188.30954194 157.98950439 205.79041183 165.71615429 219.8125 180.9375 C234.066204 198.18482202 237.43990056 217.27996546 236 239 C233.94446143 255.84080837 224.1259432 271.24478221 211.4375 282.1875 C197.82848493 292.48965159 182.92159884 297.2198309 166 298 C165.87625 298.53625 165.7525 299.0725 165.625 299.625 C158.04023798 328.44709569 135.83253434 353.63735506 110.72265625 368.87109375 C87.38834719 382.48017648 62.985373 387.15515943 36.16357422 387.14526367 C34.82156787 387.14826466 33.47956238 387.15166931 32.13755798 387.15544128 C28.52766629 387.1641914 24.91779837 387.16661561 21.30789709 387.16725707 C19.04161813 387.16797288 16.77534503 387.17011716 14.50906754 387.17275429 C6.57147088 387.18197904 -1.3661091 387.18609292 -9.30371094 387.18530273 C-16.65176358 387.1847032 -23.99974251 387.19523796 -31.34777653 387.2110464 C-37.69814457 387.22421167 -44.0484888 387.22948287 -50.39887035 387.22884732 C-54.17307632 387.2285949 -57.94721671 387.23130216 -61.72140884 387.24202538 C-100.5068832 387.34460793 -100.5068832 387.34460793 -116.625 382.8125 C-117.40512451 382.59891846 -118.18524902 382.38533691 -118.98901367 382.1652832 C-136.78255171 377.07083778 -153.1119652 368.20463664 -167 356 C-167.83015625 355.31421875 -168.6603125 354.6284375 -169.515625 353.921875 C-185.89793204 340.01236902 -199.93864255 318.92027747 -205 298 C-205.825 297.98582031 -206.65 297.97164063 -207.5 297.95703125 C-227.62774606 297.12586316 -245.03252217 289.24529428 -259.1875 274.76171875 C-274.09478128 257.43782742 -277.63393827 237.24912093 -276 215 C-273.88231795 198.04733896 -263.36726313 182.63669035 -250.49609375 171.9140625 C-235.9978617 161.25565113 -221.5853979 157.63987019 -204 157 C-203.88527344 156.30519531 -203.77054687 155.61039063 -203.65234375 154.89453125 C-197.80907551 128.9672153 -175.61691171 104.82336517 -154.09667969 90.68725586 C-142.90743733 83.63347068 -131.05843132 78.30023147 -118.375 74.5625 C-117.5897998 74.32756836 -116.80459961 74.09263672 -115.99560547 73.85058594 C-98.26743699 69.00093499 -79.65088521 69.59240566 -61.4375 69.375 C-58.76885141 69.33771884 -56.10025288 69.29767911 -53.43164062 69.2578125 C-46.95452819 69.16275079 -40.47734577 69.0774471 -34 69 C-34.69228195 68.59161896 -35.3845639 68.18323792 -36.0978241 67.76248169 C-37.00293228 67.22485199 -37.90804047 66.68722229 -38.84057617 66.13330078 C-39.73910812 65.60116974 -40.63764008 65.0690387 -41.56340027 64.52078247 C-49.66826331 59.46220289 -54.7462119 51.16055809 -57 42 C-58.47970265 30.67823842 -56.82499661 21.72671817 -51.1875 11.8125 C-39.32329019 -3.44148404 -17.68613532 -10.35150956 0 0 Z M-134 189 C-136.39413397 192.18019084 -138.26087475 195.42392371 -140 199 C-140.4125 199.80695313 -140.825 200.61390625 -141.25 201.4453125 C-145.69335337 211.53542745 -145.5614588 224.01918583 -142.4375 234.5 C-137.47375142 247.13658529 -128.14870029 257.08691579 -116 263 C-104.59572478 267.69587803 -91.15086626 267.6656512 -79.6875 263.2734375 C-75.4554814 261.26814962 -71.73214891 258.81263396 -68 256 C-67.13375 255.4225 -66.2675 254.845 -65.375 254.25 C-56.36919618 245.71818585 -51.07461117 234.2766185 -50 222 C-49.67029733 207.30991455 -54.79487234 195.61360804 -64.8046875 185.10546875 C-73.59569181 176.7339522 -84.76557315 172.16631267 -96.8125 171.6875 C-111.51337017 172.05217275 -124.12263955 178.28528546 -134 189 Z M21.296875 188.0859375 C12.74036817 198.94164174 8.93955033 211.24836236 10 225 C11.70658781 236.97714354 17.38479327 248.4285113 27 256 C38.74889649 264.4534743 50.74738477 267.21110306 65 266 C77.3477684 263.85686263 88.19091804 256.47592775 95.82421875 246.65234375 C103.27203956 235.11478758 106.01722986 222.02948553 103.3046875 208.54296875 C101.34144506 201.45714836 98.46193104 195.81031679 94 190 C93.4225 189.13375 92.845 188.2675 92.25 187.375 C83.76118933 178.41458873 71.89197715 172.8544565 59.6484375 171.796875 C44.58987447 171.48638916 31.62714935 177.19638078 21.296875 188.0859375 Z " fill="#000000" transform="translate(276,4)"/>
<path d="M0 0 C14.60726856 13.09910267 26.88756005 28.30848067 36.66748047 45.32885742 C37.18193726 46.22374878 37.18193726 46.22374878 37.70678711 47.13671875 C40.04248047 51.3146834 40.04248047 51.3146834 40.04248047 53.57885742 C-68.52751953 53.57885742 -177.09751953 53.57885742 -288.95751953 53.57885742 C-286.70211202 46.81263489 -286.70211202 46.81263489 -284.96142578 43.98510742 C-284.5735791 43.35451416 -284.18573242 42.7239209 -283.78613281 42.07421875 C-283.36831543 41.41574951 -282.95049805 40.75728027 -282.52001953 40.07885742 C-282.07899902 39.38107178 -281.63797852 38.68328613 -281.18359375 37.96435547 C-254.7778686 -3.08589743 -213.21708107 -32.20207182 -165.69238281 -43.22363281 C-106.34155774 -56.05043538 -45.51201841 -40.13524427 0 0 Z " fill="#000000" transform="translate(380.95751953125,458.421142578125)"/>
</svg>
